<svg id="Layer_1" data-name="Layer 1" xmlns="http://www.w3.org/2000/svg" viewBox="0 0 170.08 170.08"><defs><style>.cls-1,.cls-2{fill:none;stroke-linecap:round;stroke-linejoin:round;stroke-width:1.5px;}.cls-1{stroke:#58595b;}.cls-2{stroke:#3da4bf;}</style></defs><line class="cls-1" x1="33.4" y1="107.09" x2="78.74" y2="107.09"/><line class="cls-1" x1="33.4" y1="138.63" x2="78.74" y2="138.63"/><line class="cls-1" x1="88.29" y1="138.63" x2="130.58" y2="138.63"/><path class="cls-1" d="M33.57,44.24C60.36,46.93,53,71.91,78.08,75.19"/><path class="cls-1" d="M89.08,75.85c25.28,2.93,19,26.28,41.5,30.56"/><path class="cls-1" d="M88.66,107.34c25.62,2.71,19.35,26,41.54,30.54"/><path class="cls-1" d="M34,75.85c26.75,3.21,16.52,31,44.09,31"/><circle class="cls-1" cx="28.63" cy="44.01" r="4.77"/><circle class="cls-1" cx="28.63" cy="75.55" r="4.77"/><circle class="cls-1" cx="28.63" cy="107.09" r="4.77"/><circle class="cls-1" cx="28.63" cy="138.63" r="4.77"/><circle class="cls-2" cx="83.52" cy="75.55" r="4.77"/><circle class="cls-2" cx="83.52" cy="107.09" r="4.77"/><circle class="cls-1" cx="138.4" cy="107.09" r="7.82"/><circle class="cls-1" cx="138.4" cy="138.63" r="7.82"/><circle class="cls-2" cx="83.52" cy="138.63" r="4.77"/></svg>