<svg width="205" height="44" viewBox="0 0 205 44" fill="none" xmlns="http://www.w3.org/2000/svg">
<path d="M10.2793 15.2168H5.18848L4.19824 19H0.25L6.02637 0.515625H9.44141L15.2559 19H11.2695L10.2793 15.2168ZM6.00098 12.1064H9.4541L7.72754 5.51758L6.00098 12.1064ZM29.957 19H26.2373V11.0908H20.7275V19H16.9951V0.515625H20.7275V7.99316H26.2373V0.515625H29.957V19ZM42.5127 11.002H36.6982V15.9023H43.5791V19H32.9658V0.515625H43.5537V3.62598H36.6982V7.99316H42.5127V11.002ZM54.5605 15.2168H49.4697L48.4795 19H44.5312L50.3076 0.515625H53.7227L59.5371 19H55.5508L54.5605 15.2168ZM50.2822 12.1064H53.7354L52.0088 5.51758L50.2822 12.1064ZM61.2764 19V0.515625H66.1641C68.3223 0.515625 70.0404 1.20117 71.3184 2.57227C72.6048 3.94336 73.2607 5.82227 73.2861 8.20898V11.2051C73.2861 13.6341 72.6429 15.5426 71.3564 16.9307C70.0785 18.3102 68.3138 19 66.0625 19H61.2764ZM65.0088 3.62598V15.9023H66.126C67.3701 15.9023 68.2461 15.5765 68.7539 14.9248C69.2617 14.2646 69.5283 13.1305 69.5537 11.5225V8.31055C69.5537 6.58398 69.3125 5.38216 68.8301 4.70508C68.3477 4.01953 67.5267 3.65983 66.3672 3.62598H65.0088ZM94.9824 11.4209C94.9824 13.9007 94.3942 15.8262 93.2178 17.1973C92.0498 18.5684 90.4248 19.2539 88.3428 19.2539C86.2692 19.2539 84.64 18.5768 83.4551 17.2227C82.2702 15.86 81.6693 13.9557 81.6523 11.5098V8.34863C81.6523 5.80957 82.2406 3.8291 83.417 2.40723C84.5934 0.976888 86.2269 0.261719 88.3174 0.261719C90.374 0.261719 91.9948 0.964193 93.1797 2.36914C94.3646 3.76562 94.9655 5.72917 94.9824 8.25977V11.4209ZM91.2373 8.32324C91.2373 6.65592 91.0003 5.41602 90.5264 4.60352C90.0524 3.79102 89.3161 3.38477 88.3174 3.38477C87.3271 3.38477 86.5951 3.77832 86.1211 4.56543C85.6471 5.34408 85.4017 6.5332 85.3848 8.13281V11.4209C85.3848 13.0374 85.626 14.2308 86.1084 15.001C86.5908 15.7627 87.3356 16.1436 88.3428 16.1436C89.3161 16.1436 90.0397 15.7712 90.5137 15.0264C90.9876 14.2731 91.2288 13.1094 91.2373 11.5352V8.32324ZM107.195 11.459H101.394V19H97.6611V0.515625H107.894V3.62598H101.394V8.36133H107.195V11.459ZM128.549 12.8428C128.456 14.9502 127.863 16.5456 126.771 17.6289C125.68 18.7122 124.139 19.2539 122.15 19.2539C120.06 19.2539 118.456 18.5684 117.339 17.1973C116.23 15.8177 115.676 13.8542 115.676 11.3066V8.19629C115.676 5.65723 116.251 3.70215 117.402 2.33105C118.553 0.951497 120.153 0.261719 122.201 0.261719C124.215 0.261719 125.743 0.824544 126.784 1.9502C127.834 3.07585 128.43 4.69238 128.574 6.7998H124.829C124.795 5.49642 124.592 4.59928 124.22 4.1084C123.856 3.60905 123.183 3.35938 122.201 3.35938C121.202 3.35938 120.496 3.71061 120.081 4.41309C119.666 5.1071 119.446 6.25391 119.421 7.85352V11.3447C119.421 13.1813 119.624 14.4424 120.03 15.1279C120.445 15.8135 121.152 16.1562 122.15 16.1562C123.132 16.1562 123.809 15.9193 124.182 15.4453C124.554 14.9629 124.766 14.0954 124.816 12.8428H128.549ZM143.809 19H140.089V11.0908H134.579V19H130.847V0.515625H134.579V7.99316H140.089V0.515625H143.809V19ZM155.869 15.2168H150.778L149.788 19H145.84L151.616 0.515625H155.031L160.846 19H156.859L155.869 15.2168ZM151.591 12.1064H155.044L153.317 5.51758L151.591 12.1064ZM175.509 19H171.776L166.317 6.87598V19H162.585V0.515625H166.317L171.789 12.6523V0.515625H175.509V19ZM191.073 16.9053C190.354 17.6839 189.469 18.2721 188.42 18.6699C187.379 19.0592 186.236 19.2539 184.992 19.2539C182.868 19.2539 181.217 18.598 180.041 17.2861C178.865 15.9658 178.259 14.0488 178.226 11.5352V8.20898C178.226 5.66146 178.78 3.70215 179.889 2.33105C181.006 0.951497 182.631 0.261719 184.764 0.261719C186.77 0.261719 188.28 0.756836 189.296 1.74707C190.32 2.7373 190.912 4.29036 191.073 6.40625H187.442C187.341 5.22982 187.095 4.43001 186.706 4.00684C186.317 3.5752 185.707 3.35938 184.878 3.35938C183.871 3.35938 183.139 3.72754 182.682 4.46387C182.225 5.2002 181.988 6.3724 181.971 7.98047V11.332C181.971 13.0163 182.22 14.2435 182.72 15.0137C183.228 15.7754 184.057 16.1562 185.208 16.1562C185.944 16.1562 186.541 16.0081 186.998 15.7119L187.328 15.4834V12.0938H184.713V9.27539H191.073V16.9053ZM203.261 11.002H197.446V15.9023H204.327V19H193.714V0.515625H204.302V3.62598H197.446V7.99316H203.261V11.002Z" fill="black"/>
<path d="M148.31 40.1436C147.681 40.1162 147.207 39.82 146.888 39.2549L146.648 40H144.892L146.717 29.5H148.604L147.886 33.2119C148.314 32.7015 148.799 32.4508 149.342 32.46C149.989 32.4691 150.47 32.7106 150.784 33.1846C151.103 33.6585 151.247 34.3467 151.215 35.249C151.178 36.3018 151.044 37.2109 150.812 37.9766C150.584 38.7376 150.258 39.2959 149.834 39.6514C149.41 40.0023 148.902 40.1663 148.31 40.1436ZM149.355 35.2695C149.369 34.8457 149.319 34.5449 149.205 34.3672C149.091 34.1895 148.911 34.096 148.665 34.0869C148.314 34.0732 147.997 34.2555 147.715 34.6338L147.127 38.0244C147.264 38.3525 147.521 38.5257 147.899 38.5439C148.606 38.5804 149.027 38.0814 149.164 37.0469L149.226 36.541L149.355 35.2695ZM154.448 36.7461L156.123 32.6035H158.188L154.373 41.1143C154.095 41.7796 153.771 42.2604 153.402 42.5566C153.033 42.8574 152.607 43.0078 152.124 43.0078C151.928 43.0078 151.65 42.96 151.29 42.8643L151.454 41.3535L151.659 41.3672C152.174 41.3763 152.552 41.1462 152.794 40.6768L153.108 39.9727L152.343 32.6035H154.318L154.448 36.7461ZM164.477 40.1367C163.602 40.1185 162.907 39.8314 162.392 39.2754C161.881 38.7194 161.603 37.9469 161.558 36.958C161.539 36.6162 161.553 36.2699 161.599 35.9189L161.852 34.2646C161.984 33.3805 162.241 32.5967 162.624 31.9131C163.007 31.2295 163.483 30.7214 164.053 30.3887C164.622 30.056 165.265 29.8965 165.98 29.9102C166.865 29.9284 167.557 30.2314 168.059 30.8193C168.564 31.4027 168.836 32.2025 168.872 33.2188C168.881 33.6016 168.861 33.9639 168.811 34.3057L168.585 35.8301C168.38 37.1973 167.917 38.2637 167.197 39.0293C166.482 39.7904 165.575 40.1595 164.477 40.1367ZM166.849 34.2373C166.903 33.7679 166.931 33.4056 166.931 33.1504C166.908 32.1341 166.541 31.6123 165.83 31.585C165.283 31.5622 164.841 31.7695 164.504 32.207C164.171 32.64 163.939 33.3213 163.807 34.251L163.567 35.9258C163.513 36.377 163.492 36.7301 163.506 36.9854C163.529 37.9424 163.905 38.4368 164.634 38.4688C165.153 38.487 165.579 38.2956 165.912 37.8945C166.245 37.4935 166.477 36.8372 166.609 35.9258L166.849 34.2373ZM172.905 36.3633H171.907L171.278 40H169.316L171.039 30.0469L174.047 30.0537C174.936 30.0811 175.617 30.3545 176.091 30.874C176.565 31.3936 176.765 32.1022 176.692 33C176.578 34.3626 175.959 35.3105 174.833 35.8438L175.831 39.8906V40H173.726L172.905 36.3633ZM172.194 34.6885L173.227 34.7021C173.701 34.693 174.074 34.5062 174.348 34.1416C174.621 33.7725 174.756 33.2848 174.751 32.6787C174.733 32.0817 174.471 31.765 173.965 31.7285L172.714 31.7217L172.194 34.6885ZM176.897 40L178.62 30.0469L181.074 30.0537C181.799 30.0719 182.41 30.2611 182.906 30.6211C183.408 30.9811 183.765 31.4801 183.979 32.1182C184.198 32.7562 184.257 33.4694 184.157 34.2578L183.938 35.7139C183.738 37.0537 183.253 38.1019 182.482 38.8584C181.717 39.6149 180.753 39.9954 179.591 40H176.897ZM180.295 31.7217L179.146 38.332L179.632 38.3457C180.311 38.3457 180.837 38.1497 181.211 37.7578C181.585 37.3613 181.835 36.7256 181.963 35.8506L182.195 34.2373C182.259 33.7132 182.284 33.3304 182.271 33.0889C182.248 32.6331 182.132 32.2959 181.922 32.0771C181.712 31.8584 181.402 31.7422 180.992 31.7285L180.295 31.7217ZM186.68 40H184.718L186.447 30.0469H188.409L186.68 40ZM195.143 40H193.229L191.492 33.4033L190.344 40H188.382L190.104 30.0469H192.025L193.769 36.6504L194.917 30.0469H196.872L195.143 40ZM201.869 37.9629H199.224L198.355 40H196.223L200.967 30.0469H202.765L204.07 40H202.04L201.869 37.9629ZM199.941 36.2881H201.732L201.452 32.7607L199.941 36.2881Z" fill="#F58220"/>
</svg>
