<?xml version="1.0" encoding="UTF-8" standalone="no"?>
<!DOCTYPE svg PUBLIC "-//W3C//DTD SVG 1.1//EN" "http://www.w3.org/Graphics/SVG/1.1/DTD/svg11.dtd">
<svg width="100%" height="100%" viewBox="0 0 544 187" version="1.1" xmlns="http://www.w3.org/2000/svg" xmlns:xlink="http://www.w3.org/1999/xlink" xml:space="preserve" xmlns:serif="http://www.serif.com/" style="fill-rule:evenodd;clip-rule:evenodd;stroke-linejoin:round;stroke-miterlimit:2;">
    <g transform="matrix(4.8054,0,0,4.8054,-75.6562,-1.25329)">
        <path d="M51.441,0.261L36.467,39.159L32.298,39.159L47.327,0.261L51.441,0.261Z" style="fill:white;fill-rule:nonzero;"/>
    </g>
    <g transform="matrix(4.8054,0,0,4.8054,-75.6562,-1.25329)">
        <path d="M38.404,0.261C38.404,0.261 39.785,0.182 39.607,3.226C39.376,7.197 36.968,13.427 34.725,19.71C32.833,25.009 30.333,30.021 28.213,32.589C25.41,35.984 22.195,39.159 15.744,39.159L26.403,39.159C30.028,39.159 33.964,26.193 36.604,19.71C39.191,13.355 43.814,0.261 43.814,0.261L38.404,0.261Z" style="fill:white;"/>
    </g>
    <g transform="matrix(4.8054,0,0,4.8054,-75.6562,-1.25329)">
        <path d="M43.375,29.129C43.375,29.129 42.324,32.873 42.527,35.293C42.715,37.523 46.704,39.159 49.129,39.159L41.042,39.159C39.713,39.159 40.185,37.243 40.699,35.95C41.214,34.658 43.375,29.129 43.375,29.129Z" style="fill:white;"/>
    </g>
    <g transform="matrix(4.76117,0,0,4.76117,223.829,-159.955)">
        <path d="M0,50.55L0,51.864L1.35,51.864L1.35,55.901L2.799,55.901L2.799,51.864L4.141,51.864L4.141,50.55L0,50.55Z" style="fill:white;fill-rule:nonzero;"/>
    </g>
    <g transform="matrix(4.76117,0,0,4.76117,223.829,-159.955)">
        <path d="M8.982,56C10.631,56 11.811,54.839 11.811,53.225C11.811,51.612 10.631,50.451 8.982,50.451C7.324,50.451 6.144,51.612 6.144,53.225C6.144,54.839 7.324,56 8.982,56ZM8.982,54.625C8.199,54.625 7.623,54.044 7.623,53.225C7.623,52.407 8.199,51.826 8.982,51.826C9.764,51.826 10.332,52.407 10.332,53.225C10.332,54.044 9.764,54.625 8.982,54.625Z" style="fill:white;fill-rule:nonzero;"/>
    </g>
    <g transform="matrix(4.76117,0,0,4.76117,223.829,-159.955)">
        <path d="M17.596,50.55L17.596,51.864L18.946,51.864L18.946,55.901L20.395,55.901L20.395,51.864L21.737,51.864L21.737,50.55L17.596,50.55Z" style="fill:white;fill-rule:nonzero;"/>
    </g>
    <g transform="matrix(4.76117,0,0,4.76117,223.829,-159.955)">
        <path d="M27.168,52.507L25.572,52.507L25.572,50.55L24.131,50.55L24.131,55.901L25.572,55.901L25.572,53.89L27.168,53.89L27.168,55.901L28.617,55.901L28.617,50.55L27.168,50.55L27.168,52.507Z" style="fill:white;fill-rule:nonzero;"/>
    </g>
    <g transform="matrix(4.76117,0,0,4.76117,223.829,-159.955)">
        <path d="M32.782,53.836L34.707,53.836L34.707,52.606L32.782,52.606L32.782,51.803L34.869,51.803L34.869,50.55L31.356,50.55L31.356,55.901L34.93,55.901L34.93,54.625L32.782,54.625L32.782,53.836Z" style="fill:white;fill-rule:nonzero;"/>
    </g>
    <g transform="matrix(4.76117,0,0,4.76117,223.829,-159.955)">
        <path d="M44.265,53.913C44.925,53.661 45.3,53.095 45.3,52.33C45.3,51.23 44.541,50.55 43.283,50.55L41.244,50.55L41.244,55.901L42.677,55.901L42.677,54.005L43.951,55.901L45.53,55.901L45.53,55.74L44.265,53.913ZM42.669,51.864L43.245,51.864C43.637,51.864 43.867,52.071 43.867,52.445C43.867,52.82 43.637,53.019 43.245,53.019L42.669,53.019L42.669,51.864Z" style="fill:white;fill-rule:nonzero;"/>
    </g>
    <g transform="matrix(4.76117,0,0,4.76117,223.829,-159.955)">
        <path d="M50.333,56C51.982,56 53.162,54.839 53.162,53.225C53.162,51.612 51.982,50.451 50.333,50.451C48.675,50.451 47.495,51.612 47.495,53.225C47.495,54.839 48.675,56 50.333,56ZM50.333,54.625C49.55,54.625 48.974,54.044 48.974,53.225C48.974,52.407 49.55,51.826 50.333,51.826C51.115,51.826 51.683,52.407 51.683,53.225C51.683,54.044 51.115,54.625 50.333,54.625Z" style="fill:white;fill-rule:nonzero;"/>
    </g>
    <g transform="matrix(4.76117,0,0,4.76117,223.829,-159.955)">
        <path d="M58.21,56C59.859,56 61.04,54.839 61.04,53.225C61.04,51.612 59.859,50.451 58.21,50.451C56.553,50.451 55.372,51.612 55.372,53.225C55.372,54.839 56.553,56 58.21,56ZM58.21,54.625C57.427,54.625 56.852,54.044 56.852,53.225C56.852,52.407 57.427,51.826 58.21,51.826C58.993,51.826 59.56,52.407 59.56,53.225C59.56,54.044 58.993,54.625 58.21,54.625Z" style="fill:white;fill-rule:nonzero;"/>
    </g>
    <g transform="matrix(4.76117,0,0,4.76117,223.829,-159.955)">
        <path d="M63.035,50.55L63.035,51.864L64.385,51.864L64.385,55.901L65.834,55.901L65.834,51.864L67.176,51.864L67.176,50.55L63.035,50.55Z" style="fill:white;fill-rule:nonzero;"/>
    </g>
</svg>
