<?xml version="1.0" encoding="UTF-8" standalone="no"?>
<!DOCTYPE svg PUBLIC "-//W3C//DTD SVG 1.1//EN" "http://www.w3.org/Graphics/SVG/1.1/DTD/svg11.dtd">
<svg width="100%" height="100%" viewBox="0 0 229 155" version="1.1" xmlns="http://www.w3.org/2000/svg" xmlns:xlink="http://www.w3.org/1999/xlink" xml:space="preserve" xmlns:serif="http://www.serif.com/" style="fill-rule:evenodd;clip-rule:evenodd;stroke-linejoin:round;stroke-miterlimit:2;">
    <rect x="0" y="0" width="228.526" height="154.804" style="fill:white;"/>
    <g transform="matrix(0.155671,0,0,1.85897,26.4888,-64.5094)">
        <path d="M133.132,69.35C133.132,68.635 134.905,68.003 138.451,67.452C141.997,66.901 146.827,66.473 152.943,66.167C159.058,65.862 165.816,65.709 173.216,65.709C179.897,65.709 185.73,65.819 190.715,66.038C195.7,66.258 199.682,66.531 202.663,66.858L202.663,65.825L220.393,65.825L220.393,72.939L202.663,72.939L202.663,71.88C199.682,72.216 195.622,72.496 190.483,72.719C185.344,72.943 179.486,73.055 172.908,73.055C165.61,73.055 158.93,72.898 152.866,72.584C146.802,72.27 141.997,71.831 138.451,71.267C134.905,70.703 133.132,70.064 133.132,69.35ZM202.663,69.376C202.663,68.885 201.455,68.459 199.04,68.098C196.625,67.736 193.464,67.461 189.558,67.271C185.653,67.082 181.439,66.987 176.916,66.987C172.394,66.987 168.18,67.08 164.274,67.265C160.369,67.45 157.208,67.721 154.793,68.078C152.377,68.435 151.17,68.859 151.17,69.35C151.17,69.84 152.377,70.271 154.793,70.641C157.208,71.011 160.394,71.293 164.351,71.487C168.308,71.68 172.497,71.777 176.916,71.777C181.439,71.777 185.653,71.682 189.558,71.493C193.464,71.304 196.625,71.026 199.04,70.66C201.455,70.294 202.663,69.866 202.663,69.376Z" style="fill:rgb(46,46,46);fill-rule:nonzero;"/>
        <path d="M287.457,65.709C293.932,65.709 299.714,65.825 304.801,66.058C309.889,66.29 313.897,66.634 316.827,67.091C319.756,67.547 321.221,68.098 321.221,68.743L321.221,72.939L303.799,72.939L303.799,68.963C303.799,68.326 301.898,67.837 298.095,67.497C294.292,67.157 289.102,66.987 282.524,66.987C275.946,66.987 270.729,67.157 266.875,67.497C263.021,67.837 261.094,68.326 261.094,68.963L261.094,72.939L243.518,72.939L243.518,63.385L261.094,63.385L261.094,66.652C264.074,66.35 267.852,66.118 272.425,65.954C276.999,65.791 282.01,65.709 287.457,65.709Z" style="fill:rgb(46,46,46);fill-rule:nonzero;"/>
        <path d="M421.432,69.208C421.432,69.475 421.226,69.716 420.815,69.931L355.909,69.931C356.423,70.499 358.941,70.955 363.463,71.299C367.986,71.644 373.536,71.816 380.114,71.816C389.57,71.816 396.25,71.484 400.156,70.822L419.119,70.822C416.55,71.476 411.899,72.012 405.167,72.429C398.435,72.846 390.084,73.055 380.114,73.055C371.994,73.055 364.722,72.902 358.299,72.597C351.875,72.291 346.839,71.861 343.19,71.306C339.541,70.751 337.717,70.107 337.717,69.376C337.717,68.644 339.49,68.001 343.036,67.446C346.582,66.89 351.567,66.462 357.99,66.161C364.414,65.86 371.789,65.709 380.114,65.709C388.131,65.709 395.274,65.855 401.544,66.148C407.813,66.441 412.695,66.852 416.19,67.381C419.685,67.91 421.432,68.519 421.432,69.208ZM403.085,68.743C402.983,68.201 400.67,67.766 396.148,67.439C391.625,67.112 386.024,66.949 379.343,66.949C373.279,66.949 368.089,67.11 363.772,67.433C359.455,67.755 356.885,68.192 356.063,68.743L403.085,68.743Z" style="fill:rgb(46,46,46);fill-rule:nonzero;"/>
        <path d="M432.84,69.35C432.84,68.635 434.613,68.003 438.159,67.452C441.705,66.901 446.536,66.473 452.651,66.167C458.767,65.862 465.525,65.709 472.925,65.709C479.606,65.709 485.438,65.819 490.423,66.038C495.408,66.258 499.391,66.531 502.372,66.858L502.372,65.825L520.101,65.825L520.101,72.939L502.372,72.939L502.372,71.88C499.391,72.216 495.331,72.496 490.192,72.719C485.053,72.943 479.195,73.055 472.617,73.055C465.319,73.055 458.638,72.898 452.574,72.584C446.51,72.27 441.705,71.831 438.159,71.267C434.613,70.703 432.84,70.064 432.84,69.35ZM502.372,69.376C502.372,68.885 501.164,68.459 498.749,68.098C496.333,67.736 493.173,67.461 489.267,67.271C485.361,67.082 481.147,66.987 476.625,66.987C472.103,66.987 467.889,67.08 463.983,67.265C460.077,67.45 456.917,67.721 454.501,68.078C452.086,68.435 450.878,68.859 450.878,69.35C450.878,69.84 452.086,70.271 454.501,70.641C456.917,71.011 460.103,71.293 464.06,71.487C468.017,71.68 472.205,71.777 476.625,71.777C481.147,71.777 485.361,71.682 489.267,71.493C493.173,71.304 496.333,71.026 498.749,70.66C501.164,70.294 502.372,69.866 502.372,69.376Z" style="fill:rgb(46,46,46);fill-rule:nonzero;"/>
        <path d="M537.368,69.35C537.368,68.635 539.141,68.003 542.687,67.452C546.233,66.901 551.064,66.473 557.179,66.167C563.295,65.862 570.104,65.709 577.607,65.709C583.157,65.709 588.63,65.81 594.026,66.013C599.422,66.215 603.713,66.484 606.9,66.819L606.9,63.385L624.629,63.385L624.629,72.939L606.9,72.939L606.9,71.867C604.022,72.212 600.039,72.496 594.951,72.719C589.864,72.943 584.031,73.055 577.453,73.055C570.053,73.055 563.295,72.898 557.179,72.584C551.064,72.27 546.233,71.831 542.687,71.267C539.141,70.703 537.368,70.064 537.368,69.35ZM606.9,69.376C606.9,68.885 605.692,68.459 603.277,68.098C600.861,67.736 597.701,67.461 593.795,67.271C589.889,67.082 585.675,66.987 581.153,66.987C576.631,66.987 572.417,67.08 568.511,67.265C564.605,67.45 561.445,67.721 559.03,68.078C556.614,68.435 555.406,68.859 555.406,69.35C555.406,69.84 556.614,70.271 559.03,70.641C561.445,71.011 564.631,71.293 568.588,71.487C572.545,71.68 576.733,71.777 581.153,71.777C585.675,71.777 589.889,71.682 593.795,71.493C597.701,71.304 600.861,71.026 603.277,70.66C605.692,70.294 606.9,69.866 606.9,69.376Z" style="fill:rgb(46,46,46);fill-rule:nonzero;"/>
        <path d="M535.056,88.332C527.039,88.332 519.793,88.18 513.318,87.874C506.843,87.568 501.755,87.138 498.055,86.583C494.355,86.028 492.505,85.384 492.505,84.653C492.505,83.93 494.406,83.289 498.209,82.729C502.012,82.17 507.202,81.739 513.78,81.438C520.358,81.137 527.707,80.986 535.827,80.986C543.946,80.986 551.295,81.137 557.873,81.438C564.451,81.739 569.642,82.17 573.445,82.729C577.247,83.289 579.149,83.93 579.149,84.653C579.149,85.376 577.196,86.017 573.29,86.577C569.385,87.136 564.066,87.568 557.334,87.874C550.601,88.18 543.176,88.332 535.056,88.332ZM535.056,87.054C539.578,87.054 543.818,86.964 547.775,86.783C551.732,86.602 554.944,86.331 557.411,85.97C559.877,85.608 561.111,85.169 561.111,84.653C561.111,84.136 559.929,83.7 557.565,83.343C555.201,82.985 552.066,82.716 548.16,82.536C544.255,82.355 540.041,82.264 535.518,82.264C530.996,82.264 526.808,82.355 522.953,82.536C519.099,82.716 516.041,82.985 513.78,83.343C511.519,83.7 510.389,84.136 510.389,84.653C510.389,85.419 512.727,86.011 517.403,86.428C522.08,86.846 527.964,87.054 535.056,87.054Z" style="fill:rgb(46,46,46);fill-rule:nonzero;"/>
        <path d="M632.184,82.303L616.458,82.303L616.458,88.216L598.729,88.216L598.729,82.303L588.707,82.303L588.707,81.103L598.729,81.103L598.729,80.599C598.729,79.781 601.324,79.185 606.514,78.811C611.705,78.437 619.85,78.249 630.95,78.249L630.95,79.476C625.606,79.476 621.854,79.56 619.696,79.728C617.537,79.895 616.458,80.186 616.458,80.599L616.458,81.103L632.184,81.103L632.184,82.303Z" style="fill:rgb(46,46,46);fill-rule:nonzero;"/>
    </g>
    <g transform="matrix(0.153151,0,0,1.85897,131.092,-64.5094)">
        <path d="M101.381,67.019C121.345,67.019 135.542,65.85 135.542,64.315C135.542,62.743 121.345,61.537 101.381,61.537C81.861,61.537 67.665,62.743 67.665,64.315C67.665,65.85 81.861,67.019 101.381,67.019ZM126.218,88.601L126.218,69.219L76.989,69.219L76.989,88.601L126.218,88.601Z" style="fill:rgb(46,46,46);fill-rule:nonzero;"/>
        <path d="M307.816,85.094C278.512,85.094 265.636,84.179 265.636,81.911L265.636,72.616L326.909,72.616L326.909,69.219L265.636,69.219L265.636,64.354L216.407,64.793L216.407,69.219L170.674,69.219L170.674,72.616L216.407,72.616L216.407,82.386C216.407,86.775 244.791,88.784 299.38,88.784C308.26,88.784 319.361,88.711 330.017,88.601L330.017,84.948C322.025,85.058 314.477,85.094 307.816,85.094Z" style="fill:rgb(46,46,46);fill-rule:nonzero;"/>
    </g>
</svg>
