<?xml version="1.0" encoding="UTF-8" standalone="no"?>
<svg
   xmlns:dc="http://purl.org/dc/elements/1.1/"
   xmlns:cc="http://creativecommons.org/ns#"
   xmlns:rdf="http://www.w3.org/1999/02/22-rdf-syntax-ns#"
   xmlns:svg="http://www.w3.org/2000/svg"
   xmlns="http://www.w3.org/2000/svg"
   xmlns:sodipodi="http://sodipodi.sourceforge.net/DTD/sodipodi-0.dtd"
   xmlns:inkscape="http://www.inkscape.org/namespaces/inkscape"
   version="1.1"
   id="svg2"
   xml:space="preserve"
   width="89.573334"
   height="74.32"
   viewBox="0 0 89.573334 74.32"
   sodipodi:docname="logo_diapositive.eps"><metadata
     id="metadata8"><rdf:RDF><cc:Work
         rdf:about=""><dc:format>image/svg+xml</dc:format><dc:type
           rdf:resource="http://purl.org/dc/dcmitype/StillImage" /></cc:Work></rdf:RDF></metadata><defs
     id="defs6" /><sodipodi:namedview
     pagecolor="#ffffff"
     bordercolor="#666666"
     borderopacity="1"
     objecttolerance="10"
     gridtolerance="10"
     guidetolerance="10"
     inkscape:pageopacity="0"
     inkscape:pageshadow="2"
     inkscape:window-width="640"
     inkscape:window-height="480"
     id="namedview4" /><g
     id="g10"
     inkscape:groupmode="layer"
     inkscape:label="ink_ext_XXXXXX"
     transform="matrix(1.3333333,0,0,-1.3333333,0,74.32)"><g
       id="g12"
       transform="scale(0.1)"><path
         d="M 514.41,557.391 364.672,168.41 H 322.98 l 150.29,388.981 h 41.14"
         style="fill:#000000;fill-opacity:1;fill-rule:nonzero;stroke:none"
         id="path14" /><path
         d="m 384.039,557.391 c 0,0 13.813,0.789 12.031,-29.653 C 393.762,488.031 369.68,425.73 347.25,362.898 328.328,309.91 303.328,259.789 282.129,234.109 254.102,200.16 221.949,168.41 157.441,168.41 c 0,0 60.129,0 106.59,0 36.25,0 75.61,129.66 102.008,194.488 25.871,63.551 72.102,194.493 72.102,194.493 h -54.102"
         style="fill:#000000;fill-opacity:1;fill-rule:evenodd;stroke:none"
         id="path16" /><path
         d="m 433.75,268.711 c 0,0 -10.512,-37.441 -8.48,-61.641 1.878,-22.3 41.769,-38.66 66.019,-38.66 0,0 -67.578,0 -80.867,0 -13.293,0 -8.57,19.16 -3.434,32.09 5.153,12.922 26.762,68.211 26.762,68.211"
         style="fill:#000000;fill-opacity:1;fill-rule:evenodd;stroke:none"
         id="path18" /><path
         d="M 0,54.5 V 41.3594 H 13.5 V 0.988281 H 27.9883 V 41.3594 H 41.4102 V 54.5 H 0"
         style="fill:#000000;fill-opacity:1;fill-rule:nonzero;stroke:none"
         id="path20" /><path
         d="m 89.8203,0 c 16.4887,0 28.2887,11.6094 28.2887,27.75 0,16.1289 -11.8,27.7383 -28.2887,27.7383 C 73.2383,55.4883 61.4414,43.8789 61.4414,27.75 61.4414,11.6094 73.2383,0 89.8203,0 Z m 0,13.75 c -7.832,0 -13.5898,5.8086 -13.5898,14 0,8.1797 5.7578,13.9883 13.5898,13.9883 7.8203,0 13.4997,-5.8086 13.4997,-13.9883 0,-8.1914 -5.6794,-14 -13.4997,-14"
         style="fill:#000000;fill-opacity:1;fill-rule:nonzero;stroke:none"
         id="path22" /><path
         d="M 175.961,54.5 V 41.3594 h 13.5 V 0.988281 h 14.488 V 41.3594 h 13.422 V 54.5 h -41.41"
         style="fill:#000000;fill-opacity:1;fill-rule:nonzero;stroke:none"
         id="path24" /><path
         d="M 271.68,34.9297 H 255.719 V 54.5 h -14.41 V 0.988281 h 14.41 V 21.1016 H 271.68 V 0.988281 h 14.492 V 54.5 H 271.68 V 34.9297"
         style="fill:#000000;fill-opacity:1;fill-rule:nonzero;stroke:none"
         id="path26" /><path
         d="m 327.82,21.6406 h 19.25 v 12.3008 h -19.25 v 8.0274 h 20.871 V 54.5 H 313.559 V 0.988281 h 35.742 V 13.75 H 327.82 v 7.8906"
         style="fill:#000000;fill-opacity:1;fill-rule:nonzero;stroke:none"
         id="path28" /><path
         d="M 442.648,20.8711 C 449.25,23.3906 453,29.0508 453,36.6992 453,47.6992 445.41,54.5 432.828,54.5 H 412.441 V 0.988281 H 426.77 V 19.9492 L 439.512,0.988281 h 15.789 V 2.60156 Z m -15.957,20.4883 h 5.758 c 3.922,0 6.223,-2.0586 6.223,-5.8086 0,-3.75 -2.301,-5.7305 -6.223,-5.7305 h -5.758 v 11.5391"
         style="fill:#000000;fill-opacity:1;fill-rule:nonzero;stroke:none"
         id="path30" /><path
         d="m 503.328,0 c 16.492,0 28.293,11.6094 28.293,27.75 0,16.1289 -11.801,27.7383 -28.293,27.7383 -16.578,0 -28.379,-11.6094 -28.379,-27.7383 C 474.949,11.6094 486.75,0 503.328,0 Z m 0,13.75 c -7.828,0 -13.59,5.8086 -13.59,14 0,8.1797 5.762,13.9883 13.59,13.9883 7.82,0 13.5,-5.8086 13.5,-13.9883 0,-8.1914 -5.68,-14 -13.5,-14"
         style="fill:#000000;fill-opacity:1;fill-rule:nonzero;stroke:none"
         id="path32" /><path
         d="m 582.102,0 c 16.488,0 28.296,11.6094 28.296,27.75 0,16.1289 -11.808,27.7383 -28.296,27.7383 -16.571,0 -28.383,-11.6094 -28.383,-27.7383 C 553.719,11.6094 565.531,0 582.102,0 Z m 0,13.75 c -7.832,0 -13.582,5.8086 -13.582,14 0,8.1797 5.75,13.9883 13.582,13.9883 7.828,0 13.5,-5.8086 13.5,-13.9883 0,-8.1914 -5.672,-14 -13.5,-14"
         style="fill:#000000;fill-opacity:1;fill-rule:nonzero;stroke:none"
         id="path34" /><path
         d="M 630.352,54.5 V 41.3594 h 13.5 V 0.988281 H 658.34 V 41.3594 h 13.422 V 54.5 h -41.41"
         style="fill:#000000;fill-opacity:1;fill-rule:nonzero;stroke:none"
         id="path36" /></g></g></svg>
