<?xml version="1.0" encoding="utf-8"?>
<!-- Generator: Adobe Illustrator 26.1.0, SVG Export Plug-In . SVG Version: 6.00 Build 0)  -->
<svg version="1.1" id="Laag_1" xmlns="http://www.w3.org/2000/svg" xmlns:xlink="http://www.w3.org/1999/xlink" x="0px" y="0px"
	 viewBox="0 0 67.2 55.7" style="enable-background:new 0 0 67.2 55.7;" xml:space="preserve">
<style type="text/css">
	.st0{fill:#FFFFFF;}
	.st1{fill-rule:evenodd;clip-rule:evenodd;fill:#FFFFFF;}
</style>
<polygon class="st0" points="51.4,0 36.5,38.9 32.3,38.9 47.3,0 51.4,0 "/>
<path class="st1" d="M38.4,0c0,0,1.4-0.1,1.2,3c-0.2,4-2.6,10.2-4.9,16.5c-1.9,5.3-4.4,10.3-6.5,12.9c-2.8,3.4-6,6.6-12.5,6.6h10.7
	c3.6,0,7.6-13,10.2-19.4S43.8,0,43.8,0L38.4,0z"/>
<path class="st1" d="M43.4,28.9c-0.6,2-0.8,4.1-0.8,6.2c0.2,2.2,4.2,3.9,6.6,3.9H41c-1.3,0-0.9-1.9-0.3-3.2S43.3,28.9,43.4,28.9
	L43.4,28.9z"/>
<polygon class="st0" points="0,50.3 0,51.6 1.4,51.6 1.4,55.6 2.8,55.6 2.8,51.6 4.1,51.6 4.1,50.3 0,50.3 "/>
<path class="st0" d="M9,55.7c1.5,0,2.8-1.3,2.7-2.8c0-1.5-1.3-2.8-2.8-2.7c-1.5,0-2.7,1.3-2.7,2.8c0,1.5,1.1,2.7,2.6,2.8
	C8.8,55.7,8.9,55.7,9,55.7z M9,54.4c-0.8,0-1.4-0.6-1.4-1.3c0-0.8,0.6-1.4,1.3-1.4s1.4,0.6,1.4,1.3c0,0,0,0,0,0
	C10.4,53.7,9.8,54.3,9,54.4C9.1,54.4,9,54.4,9,54.4z"/>
<polygon class="st0" points="17.6,50.3 17.6,51.6 19,51.6 19,55.6 20.4,55.6 20.4,51.6 21.7,51.6 21.7,50.3 17.6,50.3 "/>
<polygon class="st0" points="27.2,52.2 25.6,52.2 25.6,50.3 24.1,50.3 24.1,55.6 25.6,55.6 25.6,53.6 27.2,53.6 27.2,55.6 
	28.6,55.6 28.6,50.3 27.2,50.3 27.2,52.2 "/>
<polygon class="st0" points="32.8,53.6 34.7,53.6 34.7,52.3 32.8,52.3 32.8,51.5 34.9,51.5 34.9,50.3 31.4,50.3 31.4,55.6 
	34.9,55.6 34.9,54.4 32.8,54.4 32.8,53.6 "/>
<path class="st0" d="M44.3,53.7c0.6-0.3,1-0.9,1-1.6c0-1.1-0.8-1.8-2-1.8h-2v5.3h1.4v-1.9l1.3,1.9h1.6v-0.2L44.3,53.7L44.3,53.7z
	 M42.7,51.6h0.6c0.3,0,0.6,0.2,0.6,0.5c0,0,0,0.1,0,0.1c0,0.4-0.2,0.6-0.6,0.6h-0.6V51.6L42.7,51.6z"/>
<path class="st0" d="M50.3,55.7c1.5,0,2.8-1.3,2.7-2.8c0-1.5-1.3-2.8-2.8-2.7c-1.5,0-2.7,1.3-2.7,2.8c0,1.5,1.1,2.7,2.6,2.8
	C50.2,55.7,50.3,55.7,50.3,55.7z M50.3,54.4c-0.8,0-1.4-0.6-1.4-1.3c0-0.8,0.6-1.4,1.3-1.4s1.4,0.6,1.4,1.3c0,0,0,0,0,0
	C51.7,53.7,51.2,54.3,50.3,54.4C50.4,54.4,50.4,54.4,50.3,54.4z"/>
<path class="st0" d="M58.2,55.7c1.5,0,2.8-1.3,2.7-2.8c0-1.5-1.3-2.8-2.8-2.7c-1.5,0-2.7,1.3-2.7,2.8c0,1.5,1.1,2.7,2.6,2.8
	C58.1,55.7,58.1,55.7,58.2,55.7z M58.2,54.4c-0.8,0-1.4-0.6-1.4-1.3c0-0.8,0.6-1.4,1.3-1.4s1.4,0.6,1.4,1.3c0,0,0,0,0,0
	C59.6,53.7,59,54.3,58.2,54.4C58.3,54.4,58.2,54.4,58.2,54.4z"/>
<polygon class="st0" points="63,50.3 63,51.6 64.4,51.6 64.4,55.6 65.8,55.6 65.8,51.6 67.2,51.6 67.2,50.3 63,50.3 "/>
</svg>
