<?xml version="1.0" encoding="UTF-8"?><svg id="a" xmlns="http://www.w3.org/2000/svg" viewBox="0 0 170.08 170.08"><defs><style>.b{stroke-linecap:round;}.b,.c{fill:none;stroke:#58595b;stroke-miterlimit:10;stroke-width:4px;}</style></defs><g><line class="b" x1="71.32" y1="49.77" x2="98.76" y2="49.77"/><path class="b" d="M125.33,49.77h4.91c1.54,0,2.8,1.26,2.8,2.8v75.89c0,1.54-1.26,2.8-2.8,2.8H39.84c-1.54,0-2.8-1.26-2.8-2.8V52.57c0-1.54,1.26-2.8,2.8-2.8h4.91"/><path class="b" d="M37.04,64.66v4.74c0,1.49,1.21,2.69,2.69,2.69h90.61c1.49,0,2.69-1.21,2.69-2.69v-4.74"/></g><g><rect class="c" x="54.02" y="38.82" width="8.09" height="21.9" rx="4.05" ry="4.05"/><rect class="c" x="107.96" y="38.82" width="8.09" height="21.9" rx="4.05" ry="4.05"/></g></svg>