<?xml version="1.0" encoding="UTF-8"?><svg id="a" xmlns="http://www.w3.org/2000/svg" viewBox="0 0 170.08 170.08"><defs><style>.b{fill:none;stroke:#58595b;stroke-linecap:round;stroke-miterlimit:10;stroke-width:4px;}</style></defs><path class="b" d="M96.61,92.25c6.93,1.42,12.14,7.55,12.14,14.89"/><path class="b" d="M96.61,92.25c6.93,1.42,12.14,7.55,12.14,14.89v17.31c0,3.76-3.04,6.8-6.8,6.8h-33.68c-3.83,0-6.94-3.11-6.94-6.94v-17.17c0-7.35,5.21-13.48,12.14-14.89h23.15Z"/><path class="b" d="M101.54,55.83c0,9.71-6.69,21.4-16.4,21.4s-16.4-11.69-16.4-21.4c0-4.77,.73-9.1,3.81-12.27,3.19-3.27,7.65-4.74,12.59-4.74s9.25,1.4,12.43,4.58c3.18,3.18,3.97,7.57,3.97,12.43Z"/></svg>