<?xml version="1.0" encoding="UTF-8"?><svg id="a" xmlns="http://www.w3.org/2000/svg" viewBox="0 0 170.08 170.08"><defs><style>.b{fill:none;stroke:#58595b;stroke-linecap:round;stroke-miterlimit:10;stroke-width:4px;}</style></defs><path class="b" d="M123.28,88.66v39.92c0,1.41-1.16,2.57-2.57,2.57H37.59c-1.41,0-2.57-1.16-2.57-2.57V50.52c0-1.41,1.16-2.57,2.57-2.57h49.88"/><path class="b" d="M127.38,39.49l7.12,7.12c.7,.7,.76,1.76,.14,2.38l-51.95,51.95c-.17,.17-.39,.3-.63,.37l-9.97,2.85c-1.3,.37-2.63-.96-2.26-2.26l2.85-9.97c.07-.24,.19-.46,.37-.63l51.95-51.95c.62-.62,1.69-.56,2.38,.14Z"/><line class="b" x1="127.59" y1="56.04" x2="117.95" y2="46.4"/></svg>