<svg id="Layer_1" data-name="Layer 1" xmlns="http://www.w3.org/2000/svg" viewBox="0 0 170.08 170.08"><defs><style>.cls-1,.cls-2{fill:none;stroke-linecap:round;stroke-linejoin:round;stroke-width:1.5px;}.cls-1{stroke:#58595b;}.cls-2{stroke:#3da4bf;}</style></defs><line class="cls-1" x1="76.14" y1="74.94" x2="40.23" y2="39.04"/><line class="cls-1" x1="129.39" y1="128.19" x2="93.77" y2="92.57"/><circle class="cls-1" cx="38.2" cy="37" r="2.68"/><circle class="cls-1" cx="131.88" cy="130.68" r="2.68"/><line class="cls-1" x1="76.26" y1="92.62" x2="40.23" y2="128.65"/><line class="cls-1" x1="129.39" y1="39.49" x2="93.89" y2="74.99"/><circle class="cls-1" cx="38.2" cy="130.68" r="2.68"/><circle class="cls-1" cx="131.88" cy="37" r="2.68"/><circle class="cls-1" cx="85.04" cy="83.84" r="54.5"/><circle class="cls-1" cx="85.04" cy="83.84" r="46.3"/><line class="cls-1" x1="85.04" y1="37.55" x2="85.04" y2="15.87"/><line class="cls-1" x1="85.04" y1="151.81" x2="85.04" y2="130.14"/><polyline class="cls-1" points="79.69 21.23 85.04 15.87 90.39 21.23"/><polyline class="cls-1" points="90.39 146.46 85.04 151.81 79.69 146.46"/><line class="cls-1" x1="38.74" y1="83.84" x2="17.07" y2="83.84"/><line class="cls-1" x1="153.01" y1="83.84" x2="131.34" y2="83.84"/><polyline class="cls-1" points="22.43 89.2 17.07 83.84 22.43 78.49"/><polyline class="cls-1" points="147.65 78.49 153.01 83.84 147.65 89.2"/><polygon class="cls-2" points="85.04 37.55 76.14 74.94 38.74 83.84 76.26 92.62 85.04 130.14 93.77 92.57 131.34 83.84 93.89 74.99 85.04 37.55"/></svg>