<svg id="Layer_1" data-name="Layer 1" xmlns="http://www.w3.org/2000/svg" viewBox="0 0 170.08 170.08"><defs><style>.cls-1,.cls-2{fill:none;stroke-linecap:round;stroke-linejoin:round;stroke-width:1.5px;}.cls-1{stroke:#58595b;}.cls-2{stroke:#3da4bf;}</style></defs><line class="cls-1" x1="132.26" y1="64.71" x2="142.47" y2="54.51"/><path class="cls-1" d="M65.06,100.43,71.52,94a2.81,2.81,0,0,1,4.61,1l5.22,13.43a3.54,3.54,0,0,0,5.81,1.22L93,103.77"/><line class="cls-1" x1="23.48" y1="142.4" x2="29.51" y2="136.37"/><polyline class="cls-1" points="150.09 57.42 150.09 46.69 139.36 46.69"/><path class="cls-1" d="M41.07,106.1H54a11.56,11.56,0,0,1,11.56,11.56V124a5.17,5.17,0,0,1-5.17,5.17H34.79a5.28,5.28,0,0,1-5.28-5.28v-6.28A11.56,11.56,0,0,1,41.07,106.1Z"/><polyline class="cls-2" points="98.02 88.99 83.1 80.83 116.18 67.38 149.26 80.83 142.47 84.54"/><ellipse class="cls-2" cx="116.18" cy="94.85" rx="18.16" ry="5.76"/><line class="cls-2" x1="98.02" y1="82.4" x2="98.02" y2="94.85"/><line class="cls-2" x1="134.34" y1="82.4" x2="134.34" y2="94.85"/><path class="cls-1" d="M34.08,78.16c0,8,5.49,17.56,13.46,17.56S61,86.13,61,78.16c0-3.91-.6-7.46-3.13-10.06a14,14,0,0,0-10.33-3.9A14,14,0,0,0,37.34,68C34.73,70.57,34.08,74.18,34.08,78.16Z"/><path class="cls-1" d="M55.45,66.2s-1.64,4.6-4.16,5.45-15.94.45-15.94.45"/><path class="cls-1" d="M42.53,87.65a5.74,5.74,0,0,0,5,3.07"/></svg>