<svg width="412" height="127" viewBox="0 0 412 127" fill="none" xmlns="http://www.w3.org/2000/svg">
<g clip-path="url(#clip0)">
<path d="M106.43 55.2906C103.847 60.8245 99.2362 65.0421 93.4663 67.1473C87.6951 69.241 81.4938 68.9757 75.9425 66.3524C70.4577 63.7557 66.3188 59.2226 64.3188 53.5371L64.2788 53.4596C62.1412 47.7151 62.3489 41.4865 64.8749 35.9535C67.4375 30.3093 72.0814 26.0104 77.9665 23.8267C89.779 19.6341 102.866 25.7413 107.083 37.4865C109.261 43.3999 109.028 49.705 106.43 55.2906ZM116.158 34.1677C110.142 17.4879 91.5226 8.7459 74.6689 14.7508C66.3188 17.857 59.73 23.943 56.1002 31.9237C54.1377 36.2265 53.1501 40.7881 53.1501 45.4C53.1501 49.2231 53.8538 53.0802 55.2327 56.7948C58.1127 64.9046 64.0001 71.4062 71.825 75.1018C79.7252 78.825 88.5764 79.228 96.7575 76.2344C104.974 73.2545 111.518 67.2511 115.186 59.3665C118.862 51.4197 119.216 42.4839 116.158 34.1677Z" fill="white"/>
<path d="M55.2426 56.8287C55.2327 56.8262 55.2327 56.8111 55.2327 56.7948C55.2202 56.7887 55.2202 56.7823 55.2125 56.7634L55.2426 56.8287Z" fill="white"/>
<path d="M303.031 69.8505L311.745 67.1009L312.2 22.525H303.48L303.936 56.9826L281.914 21.1358L274.106 23.8991L273.651 68.9345H282.364L281.461 34.458H281.914L303.031 69.8505Z" fill="white"/>
<path d="M151.554 43.191H146.511V29.4145H151.554C155.789 29.3146 159.269 31.6172 159.357 35.8575C159.269 42.0873 154.179 43.2311 151.554 43.191ZM168.541 35.8575C168.326 28.4697 163.775 22.4311 152.475 22.525H137.785L137.331 68.9345H146.056V50.0969H148.797C150.229 50.2747 151.239 50.7463 152.024 51.9327L164.869 69.8505L173.595 66.6405L159.357 47.8004C164.779 45.9857 168.326 41.7557 168.541 35.8575Z" fill="white"/>
<path d="M354.886 49.6327H343.408L349.379 31.2542L354.886 49.6327ZM327.808 67.1009L335.603 69.8505L341.126 56.5283H357.184L361.779 69.8505L370.032 67.1009L353.514 22.5225H345.706L327.808 67.1009Z" fill="white"/>
<path d="M219.024 45.0409C218.816 55.5809 212.047 61.4042 202.044 61.5816H196.538V29.8752H203.876C212.844 29.74 218.816 36.4328 219.024 45.0409ZM188.281 22.525L187.816 68.9344H203.876C216.073 68.788 227.804 59.4018 227.741 45.5038C227.804 31.4733 218.08 22.3475 203.429 22.525H188.281Z" fill="white"/>
<path d="M253.913 68.9344L254.367 22.525H245.645L245.198 68.9344H253.913Z" fill="white"/>
<path d="M173.595 66.6404L164.869 69.8504L152.024 51.9326C151.239 50.7462 150.229 50.2746 148.797 50.0968H146.056V68.9344H137.331L137.785 22.5249H152.475C163.775 22.431 168.326 28.4696 168.541 35.8573C168.326 41.7556 164.779 45.9856 159.357 47.8003L173.595 66.6404ZM227.741 45.5038C227.804 59.4017 216.073 68.788 203.876 68.9344H187.816L188.281 22.5249H203.429C218.08 22.3474 227.804 31.4732 227.741 45.5038ZM254.367 22.5249L253.913 68.9344H245.197L245.645 22.5249H254.367ZM282.364 68.9344H273.651L274.106 23.899L281.914 21.1357L303.936 56.9825L303.48 22.5249H312.2L311.745 67.1008L303.031 69.8504L281.914 34.4579H281.461L282.364 68.9344ZM370.032 67.1008L361.779 69.8504L357.184 56.5282H341.126L335.603 69.8504L327.808 67.1008L345.706 22.5224H353.514L370.032 67.1008ZM96.7574 76.2343C88.5763 79.228 79.7251 78.8249 71.825 75.1018C64 71.4061 58.1126 64.9046 55.2326 56.7947C55.2326 56.8111 55.2326 56.8261 55.2426 56.8287L55.2125 56.7633C55.2202 56.7822 55.2202 56.7886 55.2326 56.7947C53.8538 53.0802 53.1501 49.2231 53.1501 45.4C53.1501 40.7881 54.1376 36.2264 56.1002 31.9237C59.7299 23.9429 66.3187 17.8569 74.6688 14.7508C91.5225 8.74586 110.142 17.4878 116.157 34.1676C119.216 42.4838 118.862 51.4197 115.186 59.3664C111.517 67.2511 104.974 73.2544 96.7574 76.2343ZM113.748 18.3888L107.044 0.0042038L56.4314 18.3888H0V72.6175H57.6486L64.3562 90.9944L114.939 72.6175H411.997V18.3888H113.748Z" fill="#F47216"/>
<path d="M151.554 29.4145H146.511V43.191H151.554C154.179 43.231 159.269 42.0872 159.357 35.8574C159.269 31.6171 155.789 29.3145 151.554 29.4145Z" fill="#F47216"/>
<path d="M196.538 61.5817H202.044C212.047 61.4042 218.816 55.5809 219.024 45.0409C218.816 36.4328 212.844 29.74 203.876 29.8752H196.538V61.5817Z" fill="#F47216"/>
<path d="M354.886 49.6326L349.379 31.2542L343.408 49.6326H354.886Z" fill="#F47216"/>
<path d="M77.9663 23.8266C72.0812 26.0104 67.4373 30.3093 64.8748 35.9535C62.3487 41.4865 62.141 47.7151 64.2786 53.4596L64.3186 53.5371C66.3186 59.2226 70.4575 63.7557 75.9423 66.3524C81.4936 68.9757 87.6949 69.241 93.4661 67.1473C99.236 65.0421 103.847 60.8245 106.43 55.2905C109.027 49.705 109.261 43.3998 107.082 37.4865C102.866 25.7413 89.7788 19.6341 77.9663 23.8266Z" fill="#F47216"/>
<path d="M152.42 111.348L150.579 106.907C149.827 105.103 149.037 102.322 149.037 102.322C149.037 102.322 148.286 105.103 147.536 106.907L145.694 111.348H152.42ZM148.887 92.8379H149.339L161.027 118.648H155.501L154.3 115.753H143.929L142.725 118.648H137.651L148.887 92.8379Z" fill="#4F4C4C"/>
<path d="M163.807 91.4827H168.881V105.14C169.858 103.297 171.625 102.28 173.843 102.28C177.338 102.28 179.855 104.84 179.855 109.392V118.648H174.781V109.731C174.781 107.925 173.917 106.907 172.114 106.907C170.085 106.907 168.881 108.037 168.881 110.067V118.648H163.807V91.4827Z" fill="#4F4C4C"/>
<path d="M195.376 109.241C195.15 107.474 194.024 106.42 192.031 106.42C190.041 106.42 188.686 107.32 188.274 109.241H195.376ZM192.483 114.774C194.324 114.774 195.714 114.057 196.504 113.494L199.397 116.616C197.856 117.971 195.901 118.988 192.557 118.988C186.845 118.988 183.163 115.528 183.163 110.597C183.163 105.741 187.033 102.281 191.994 102.281C197.744 102.281 200.862 106.569 200.487 112.176H188.349C188.837 113.832 190.189 114.774 192.483 114.774Z" fill="#4F4C4C"/>
<path d="M215.445 110.597C215.445 108.228 214.205 106.757 212.025 106.757C209.882 106.757 208.68 108.228 208.68 110.597C208.68 113.043 209.882 114.545 212.025 114.545C214.205 114.545 215.445 113.043 215.445 110.597ZM203.419 110.597C203.419 105.741 206.538 102.281 210.557 102.281C212.964 102.281 214.542 103.297 215.445 105.028L215.369 102.618H220.405V118.648H215.369L215.445 116.2C214.619 117.82 212.926 118.988 210.482 118.988C206.651 118.988 203.419 115.528 203.419 110.597Z" fill="#4F4C4C"/>
<path d="M236.189 110.597C236.189 108.228 234.761 106.757 232.581 106.757C230.439 106.757 229.086 108.228 229.086 110.597C229.086 113.119 230.439 114.545 232.581 114.545C234.761 114.545 236.189 113.119 236.189 110.597ZM223.862 110.597C223.862 105.666 227.17 102.281 231.041 102.281C233.595 102.281 235.024 103.297 236.039 104.877V91.4827H241.113V118.648H236.039L236.151 116.316C235.249 118.008 233.557 118.988 231.116 118.988C227.207 118.988 223.862 115.528 223.862 110.597Z" fill="#4F4C4C"/>
<path d="M265.276 110.672C265.276 108.263 263.924 106.648 261.669 106.648C259.415 106.648 258.024 108.263 258.024 110.672C258.024 113.043 259.415 114.698 261.669 114.698C263.924 114.698 265.276 113.043 265.276 110.672ZM252.837 110.672C252.837 105.781 256.709 102.281 261.669 102.281C266.63 102.281 270.462 105.781 270.462 110.672C270.462 115.528 266.63 118.988 261.669 118.988C256.709 118.988 252.837 115.528 252.837 110.672Z" fill="#4F4C4C"/>
<path d="M275.35 106.833H272.681V102.618H275.35V97.2395C275.35 93.1006 277.304 90.9944 281.249 90.9944C283.505 90.9944 285.007 91.6704 286.174 93.0257L283.43 96.411C283.054 95.9604 282.604 95.5437 281.812 95.5437C280.986 95.5437 280.422 95.998 280.422 97.1656V102.618H284.744V106.833H280.422V118.648H275.35V106.833Z" fill="#4F4C4C"/>
<path d="M295.606 110.597C295.606 105.741 299.364 102.281 304.361 102.281C307.555 102.281 309.473 103.447 311.087 105.481L307.481 108.413C306.88 107.437 305.639 106.723 304.361 106.723C302.069 106.723 300.791 108.338 300.791 110.597C300.791 112.931 302.069 114.587 304.361 114.587C305.976 114.587 306.842 113.832 307.593 113.081L311.012 116.091C309.435 117.859 307.555 118.988 304.361 118.988C299.364 118.988 295.606 115.528 295.606 110.597Z" fill="#4F4C4C"/>
<path d="M314.095 91.4827H319.169V105.14C320.144 103.297 321.91 102.28 324.131 102.28C327.626 102.28 330.141 104.84 330.141 109.392V118.648H325.069V109.731C325.069 107.925 324.205 106.907 322.4 106.907C320.371 106.907 319.169 108.037 319.169 110.067V118.648H314.095V91.4827Z" fill="#4F4C4C"/>
<path d="M345.514 110.597C345.514 108.228 344.275 106.757 342.093 106.757C339.952 106.757 338.749 108.228 338.749 110.597C338.749 113.043 339.952 114.545 342.093 114.545C344.275 114.545 345.514 113.043 345.514 110.597ZM333.488 110.597C333.488 105.741 336.608 102.281 340.627 102.281C343.03 102.281 344.611 103.297 345.514 105.028L345.437 102.618H350.474V118.648H345.437L345.514 116.2C344.685 117.82 342.995 118.988 340.55 118.988C336.72 118.988 333.488 115.528 333.488 110.597Z" fill="#4F4C4C"/>
<path d="M354.458 102.618H359.533L359.418 105.253C360.397 103.335 362.275 102.28 364.49 102.28C367.987 102.28 370.502 104.84 370.502 109.392V118.648H365.43V109.731C365.43 107.925 364.566 106.907 362.762 106.907C360.733 106.907 359.533 108.037 359.533 110.067V118.648H354.458V102.618Z" fill="#4F4C4C"/>
<path d="M386.176 110.597C386.176 108.228 384.745 106.757 382.566 106.757C380.425 106.757 379.072 108.228 379.072 110.597C379.072 113.118 380.425 114.545 382.566 114.545C384.745 114.545 386.176 113.118 386.176 110.597ZM373.961 123.049L377.533 120.267C378.659 121.66 379.974 122.749 382.269 122.749C384.595 122.749 386.064 121.357 386.064 118.421V116.504C385.2 117.971 383.542 118.988 381.101 118.988C377.193 118.988 373.849 115.528 373.849 110.597C373.849 105.666 377.155 102.28 381.027 102.28C383.581 102.28 385.235 103.409 386.176 105.103L386.064 102.618H391.136V118.609C391.136 124.707 387.152 127.001 382.493 127.001C378.246 127.001 375.763 125.496 373.961 123.049Z" fill="#4F4C4C"/>
<path d="M406.768 109.241C406.544 107.474 405.418 106.42 403.424 106.42C401.434 106.42 400.08 107.32 399.667 109.241H406.768ZM403.875 114.774C405.715 114.774 407.107 114.057 407.898 113.494L410.79 116.616C409.248 117.971 407.296 118.988 403.949 118.988C398.24 118.988 394.557 115.528 394.557 110.597C394.557 105.741 398.426 102.281 403.389 102.281C409.136 102.281 412.256 106.569 411.878 112.176H399.741C400.23 113.832 401.584 114.774 403.875 114.774Z" fill="#4F4C4C"/>
</g>
<defs>
<clipPath id="clip0">
<rect width="412" height="127" fill="white"/>
</clipPath>
</defs>
</svg>
